<svg xmlns="http://www.w3.org/2000/svg" xmlns:xlink="http://www.w3.org/1999/xlink" width="500" zoomAndPan="magnify" viewBox="0 0 375 374.999991" height="500" preserveAspectRatio="xMidYMid meet" version="1.0"><defs><g/><clipPath id="040d2a5028"><path d="M 158 165 L 259.5 165 L 259.5 227 L 158 227 Z M 158 165 " clip-rule="nonzero"/></clipPath><clipPath id="a0326ba595"><path d="M 115.5 83.761719 L 249 83.761719 L 249 233.761719 L 115.5 233.761719 Z M 115.5 83.761719 " clip-rule="nonzero"/></clipPath></defs><g clip-path="url(#040d2a5028)"><path fill="#800080" d="M 232.078125 201.554688 C 236.582031 193.679688 239.152344 184.5625 239.152344 174.84375 C 239.152344 171.632812 238.871094 168.484375 238.332031 165.429688 C 236.152344 177.554688 229.707031 188.199219 220.601562 195.746094 C 215.332031 200.117188 207.492188 199.230469 203.367188 193.765625 L 195.675781 183.570312 C 194.394531 181.875 192.394531 180.878906 190.269531 180.878906 L 160.953125 180.878906 C 160.945312 180.878906 160.9375 180.878906 160.933594 180.878906 C 158.929688 180.894531 157.636719 183.003906 158.535156 184.796875 L 159.703125 187.121094 C 161.871094 191.441406 166.140625 194.3125 170.960938 194.691406 L 172.699219 194.828125 L 180.300781 195.429688 C 182.453125 195.597656 184.394531 196.789062 185.519531 198.628906 L 188.96875 204.269531 L 190.898438 207.425781 L 201.714844 225.117188 C 201.90625 225.433594 202.148438 225.707031 202.421875 225.9375 C 203.214844 226.601562 204.289062 226.878906 205.328125 226.621094 C 205.335938 226.617188 205.34375 226.617188 205.351562 226.613281 C 233.40625 219.691406 255.015625 196.421875 259.503906 167.488281 C 255.566406 182.332031 245.449219 194.660156 232.078125 201.554688 " fill-opacity="1" fill-rule="nonzero"/></g><g clip-path="url(#a0326ba595)"><path fill="#f8abeb" d="M 183.449219 199.894531 C 182.730469 198.71875 181.484375 197.953125 180.109375 197.84375 L 170.769531 197.109375 C 165.140625 196.667969 160.070312 193.257812 157.535156 188.207031 L 156.429688 186.007812 C 155.644531 184.441406 155.625 182.570312 156.492188 181.050781 C 157.386719 179.480469 159 178.511719 160.789062 178.457031 L 160.953125 178.453125 L 170.339844 178.453125 C 167.277344 173.625 161.761719 170.90625 156.054688 171.441406 L 146.300781 172.351562 C 142.125 172.742188 138.371094 169.863281 137.601562 165.738281 C 137.03125 162.679688 136.730469 159.527344 136.730469 156.304688 C 136.730469 139.960938 144.386719 125.410156 156.300781 116.03125 C 144.496094 123.808594 135.308594 135.234375 130.351562 148.703125 C 134.816406 116.25 162.65625 91.253906 196.335938 91.253906 C 217.1875 91.253906 235.796875 100.832031 248.011719 115.828125 C 235.027344 96.605469 213.0625 83.945312 188.136719 83.878906 C 148.234375 83.777344 115.578125 116.289062 115.519531 156.195312 C 115.5 170.242188 119.480469 183.355469 126.382812 194.464844 C 126.53125 194.699219 126.671875 194.933594 126.820312 195.167969 L 136.488281 193.527344 C 140.808594 192.796875 144.363281 196.972656 142.894531 201.097656 C 142.851562 201.210938 142.828125 201.273438 142.828125 201.273438 C 149.050781 203.539062 148 209.601562 148 209.601562 C 153.496094 212.105469 151.234375 217.28125 151.234375 217.28125 C 153.175781 218.082031 153.859375 219.65625 154.035156 220.167969 C 154.125 220.429688 154.222656 220.6875 154.324219 220.949219 L 158.082031 230.59375 C 158.730469 232.253906 160.714844 233.609375 162.496094 233.609375 C 164.742188 233.609375 166.296875 231.363281 165.503906 229.261719 L 163.746094 224.578125 L 161.398438 218.332031 C 161.234375 217.898438 161.535156 217.417969 162.007812 217.382812 C 162.320312 217.359375 162.601562 217.5625 162.722656 217.851562 L 165.804688 225.277344 L 168.089844 230.769531 C 168.875 232.664062 170.949219 233.75 172.914062 233.175781 C 175.273438 232.484375 176.445312 229.847656 175.378906 227.636719 C 175.378906 227.636719 175.378906 227.632812 175.378906 227.632812 L 169.730469 215.96875 C 169.488281 215.46875 169.820312 214.878906 170.375 214.824219 C 170.695312 214.792969 171 214.960938 171.152344 215.242188 L 178.023438 228.046875 L 178.875 229.636719 C 179.714844 231.199219 181.554688 232.015625 183.242188 231.457031 C 184.554688 231.023438 185.429688 229.925781 185.660156 228.6875 C 185.800781 227.929688 185.703125 227.121094 185.320312 226.375 L 179.941406 215.953125 C 179.707031 215.496094 179.878906 214.90625 180.355469 214.710938 C 180.777344 214.535156 181.25 214.714844 181.457031 215.105469 L 187.535156 226.585938 C 188.027344 227.511719 188.757812 228.230469 189.613281 228.707031 C 191.039062 229.496094 192.804688 229.609375 194.382812 228.863281 C 194.683594 228.722656 194.964844 228.550781 195.222656 228.359375 C 197.378906 226.796875 198.054688 223.785156 196.609375 221.417969 L 183.449219 199.894531 " fill-opacity="1" fill-rule="nonzero"/></g><path fill="#800080" d="M 130.914062 204.25 L 138.519531 202.988281 C 140.800781 202.609375 142.34375 200.453125 141.964844 198.167969 C 141.585938 195.886719 139.429688 194.34375 137.148438 194.722656 L 129.542969 195.984375 C 127.261719 196.363281 125.71875 198.519531 126.097656 200.800781 C 126.476562 203.082031 128.632812 204.625 130.914062 204.25 " fill-opacity="1" fill-rule="nonzero"/><path fill="#800080" d="M 145.84375 206.414062 C 145.464844 204.132812 143.308594 202.589844 141.027344 202.96875 L 130.648438 204.953125 C 128.367188 205.332031 126.824219 207.488281 127.203125 209.769531 C 127.578125 212.050781 129.738281 213.59375 132.019531 213.214844 L 142.398438 211.230469 C 144.679688 210.851562 146.222656 208.695312 145.84375 206.414062 " fill-opacity="1" fill-rule="nonzero"/><path fill="#800080" d="M 149.347656 215.035156 C 148.96875 212.753906 146.8125 211.210938 144.53125 211.589844 L 136.925781 212.851562 C 134.644531 213.230469 133.101562 215.386719 133.480469 217.667969 C 133.859375 219.949219 136.015625 221.492188 138.296875 221.113281 L 145.898438 219.851562 C 148.183594 219.472656 149.726562 217.316406 149.347656 215.035156 " fill-opacity="1" fill-rule="nonzero"/><path fill="#800080" d="M 149.808594 219.671875 L 143.566406 220.667969 C 141.285156 221.042969 139.742188 223.203125 140.121094 225.484375 C 140.496094 227.765625 142.65625 229.308594 144.9375 228.929688 L 151.179688 227.9375 C 153.464844 227.558594 155.007812 225.398438 154.628906 223.117188 C 154.25 220.835938 152.09375 219.292969 149.808594 219.671875 " fill-opacity="1" fill-rule="nonzero"/><g fill="#800080" fill-opacity="1"><g transform="translate(112.636745, 268.304222)"><g><path d="M 7.640625 -9.3125 C 10.203125 -8.6875 11.953125 -8.03125 12.875 -7.265625 C 13.515625 -6.75 13.84375 -6.078125 13.84375 -5.265625 C 13.84375 -4.453125 13.671875 -3.78125 13.3125 -3.3125 C 12.453125 -2.09375 10.875 -1.484375 8.671875 -1.484375 C 5.578125 -1.484375 3.84375 -2.53125 3.453125 -4.625 L 1.078125 -4.625 C 1.78125 -1.28125 4.296875 0.375 8.671875 0.375 C 10.609375 0.375 12.234375 -0.03125 13.546875 -0.90625 C 15.125 -1.921875 15.9375 -3.4375 15.9375 -5.40625 C 15.9375 -7.03125 15.296875 -8.28125 14.015625 -9.15625 C 13.109375 -9.796875 11.65625 -10.375 9.65625 -10.90625 C 7.625 -11.421875 6.3125 -11.859375 5.703125 -12.1875 C 4.359375 -12.859375 3.6875 -13.78125 3.71875 -15 C 3.71875 -15.640625 3.84375 -16.203125 4.125 -16.609375 C 4.890625 -17.734375 6.21875 -18.3125 8.140625 -18.3125 C 10.84375 -18.3125 12.390625 -17.453125 12.796875 -15.765625 L 15 -15.765625 C 14.28125 -18.609375 11.984375 -20.0625 8.140625 -20.0625 C 6.390625 -20.0625 4.859375 -19.59375 3.578125 -18.671875 C 2.265625 -17.734375 1.59375 -16.375 1.59375 -14.515625 C 1.59375 -11.984375 3.640625 -10.234375 7.640625 -9.3125 Z M 7.640625 -9.3125 "/></g></g></g><g fill="#800080" fill-opacity="1"><g transform="translate(132.23322, 268.304222)"><g><path d="M 5.375 -7.265625 L 8.984375 -16.375 L 12.5625 -7.265625 Z M 17.65625 0 L 8.984375 -21.140625 L 0.296875 0 L 2.5 0 L 4.625 -5.375 L 13.3125 -5.375 L 15.4375 0 Z M 17.65625 0 "/></g></g></g><g fill="#800080" fill-opacity="1"><g transform="translate(153.079882, 268.304222)"><g><path d="M 20.40625 0 L 22.484375 0 L 17.890625 -21.078125 L 11.40625 -4.15625 L 4.921875 -21.078125 L 0.296875 0 L 2.390625 0 L 5.4375 -14.078125 L 11.40625 1.15625 L 17.328125 -14.078125 Z M 20.40625 0 "/></g></g></g><g fill="#800080" fill-opacity="1"><g transform="translate(178.752874, 268.304222)"><g><path d="M 13.921875 0 L 13.921875 -1.890625 L 4.21875 -1.890625 L 4.21875 -8.921875 L 13.640625 -8.921875 L 13.640625 -10.84375 L 4.21875 -10.84375 L 4.21875 -17.890625 L 13.921875 -17.890625 L 13.921875 -19.765625 L 2.1875 -19.765625 L 2.1875 0 Z M 13.921875 0 "/></g></g></g><g fill="#800080" fill-opacity="1"><g transform="translate(197.767861, 268.304222)"><g><path d="M 13.921875 0 L 13.921875 -1.890625 L 4.21875 -1.890625 L 4.21875 -8.921875 L 13.640625 -8.921875 L 13.640625 -10.84375 L 4.21875 -10.84375 L 4.21875 -17.890625 L 13.921875 -17.890625 L 13.921875 -19.765625 L 2.1875 -19.765625 L 2.1875 0 Z M 13.921875 0 "/></g></g></g><g fill="#800080" fill-opacity="1"><g transform="translate(216.782847, 268.304222)"><g><path d="M 4.21875 -9.796875 L 4.21875 -17.828125 L 8.8125 -17.828125 C 10 -17.828125 10.96875 -17.453125 11.6875 -16.71875 C 12.390625 -15.96875 12.765625 -15.03125 12.765625 -13.875 C 12.765625 -12.671875 12.390625 -11.71875 11.625 -10.9375 C 10.875 -10.171875 9.9375 -9.796875 8.8125 -9.796875 Z M 14.796875 -13.8125 C 14.796875 -15.5625 14.15625 -16.984375 12.9375 -18.109375 C 11.71875 -19.21875 10.265625 -19.765625 8.515625 -19.765625 L 2.1875 -19.765625 L 2.1875 0 L 4.21875 0 L 4.21875 -7.828125 L 8.515625 -7.828125 C 10.265625 -7.828125 11.75 -8.375 12.9375 -9.484375 C 14.15625 -10.640625 14.796875 -12.0625 14.796875 -13.8125 Z M 14.796875 -13.8125 "/></g></g></g><g fill="#800080" fill-opacity="1"><g transform="translate(235.070974, 268.304222)"><g><path d="M 5.375 -7.265625 L 8.984375 -16.375 L 12.5625 -7.265625 Z M 17.65625 0 L 8.984375 -21.140625 L 0.296875 0 L 2.5 0 L 4.625 -5.375 L 13.3125 -5.375 L 15.4375 0 Z M 17.65625 0 "/></g></g></g></svg>